<?xml version="1.0" encoding="UTF-8" standalone="no"?>
<svg
   xmlns:dc="http://purl.org/dc/elements/1.1/"
   xmlns:cc="http://creativecommons.org/ns#"
   xmlns:rdf="http://www.w3.org/1999/02/22-rdf-syntax-ns#"
   xmlns:svg="http://www.w3.org/2000/svg"
   xmlns="http://www.w3.org/2000/svg"
   xmlns:sodipodi="http://sodipodi.sourceforge.net/DTD/sodipodi-0.dtd"
   xmlns:inkscape="http://www.inkscape.org/namespaces/inkscape"
   viewBox="0 0 699.99998 700.00003"
   version="1.1"
   id="svg27"
   sodipodi:docname="bauducco-logo.svg"
   width="700"
   height="700"
   inkscape:export-filename="C:\Users\suitedoalex\sites\bauducco-logo-0.png"
   inkscape:export-xdpi="561.73712"
   inkscape:export-ydpi="561.73712"
   inkscape:version="0.92.4 (5da689c313, 2019-01-14)">
  <metadata
     id="metadata31">
    <rdf:RDF>
      <cc:Work
         rdf:about="">
        <dc:format>image/svg+xml</dc:format>
        <dc:type
           rdf:resource="http://purl.org/dc/dcmitype/StillImage" />
        <dc:title></dc:title>
      </cc:Work>
    </rdf:RDF>
  </metadata>
  <sodipodi:namedview
     pagecolor="#ffffff"
     bordercolor="#666666"
     borderopacity="1"
     objecttolerance="10"
     gridtolerance="10"
     guidetolerance="10"
     inkscape:pageopacity="0"
     inkscape:pageshadow="2"
     inkscape:window-width="1600"
     inkscape:window-height="837"
     id="namedview29"
     showgrid="false"
     inkscape:zoom="0.44666244"
     inkscape:cx="-139.55816"
     inkscape:cy="42.531743"
     inkscape:window-x="-8"
     inkscape:window-y="-8"
     inkscape:window-maximized="1"
     inkscape:current-layer="svg27" />
  <defs
     id="defs21">
    <linearGradient
       id="linear-gradient"
       y1="232.20044"
       x2="249.13202"
       y2="232.20044"
       gradientUnits="userSpaceOnUse"
       gradientTransform="scale(1.3217972,0.75654571)"
       x1="149.27403">
      <stop
         offset="0.006"
         stop-color="#ffbe00"
         id="stop2" />
      <stop
         offset="0.253"
         stop-color="#fff9c6"
         id="stop4" />
      <stop
         offset="0.297"
         stop-color="#f9eeb4"
         id="stop6" />
      <stop
         offset="0.385"
         stop-color="#ead187"
         id="stop8" />
      <stop
         offset="0.508"
         stop-color="#d3a440"
         id="stop10" />
      <stop
         offset="0.596"
         stop-color="#c18209"
         id="stop12" />
      <stop
         offset="0.824"
         stop-color="#ebc464"
         id="stop14" />
      <stop
         offset="0.871"
         stop-color="#f5d378"
         id="stop16" />
      <stop
         offset="1"
         stop-color="#fff9c6"
         id="stop18" />
    </linearGradient>
  </defs>
  <g
     id="Grupo_36"
     data-name="Grupo 36"
     transform="matrix(3.7983599,0,0,3.7983599,-498.7929,-217.0201)"
     inkscape:export-filename="C:\Users\suitedoalex\sites\bauducco-logo-4.png"
     inkscape:export-xdpi="76.476837"
     inkscape:export-ydpi="76.476837">
    <path
       id="Caminho_8"
       data-name="Caminho 8"
       d="m 327.834,144.221 a 6.518,6.518 0 0 0 -3.22,-4.4 10.193,10.193 0 0 0 -4.51,-0.872 c -4.449,0 -10.131,0.8 -19.114,1.161 -16.728,0.673 -43.564,-2.078 -60.421,-2.192 -15.316,-0.108 -25.744,0.039 -31.423,4.272 -3.085,2.3 -11.836,10.632 -11.836,35.124 0,8.148 1.483,19.281 6.819,28.337 1.771,3 4.875,6.332 6.854,7.122 2.343,0.936 5.467,0.92 8.932,-0.222 6.466,-2.131 18.189,-7 34.575,-8.956 23.623,-2.816 42.5,-5.4 60.576,-14.995 a 24.319,24.319 0 0 0 12.913,-16.223 c 0.774,-3.221 1.323,-9.823 1.323,-16.838 a 65.948,65.948 0 0 0 -1.468,-11.318 z"
       transform="translate(-39.845,-26.39)"
       inkscape:connector-curvature="0"
       style="fill:url(#linear-gradient)" />
    <path
       id="Caminho_9"
       data-name="Caminho 9"
       d="m 327.81,150 a 5.742,5.742 0 0 0 -2.635,-4.147 8.981,8.981 0 0 0 -4.51,-0.834 c -4.449,0 -10.917,1.615 -19.9,1.96 -16.728,0.644 -36.129,-0.318 -52.985,-0.427 -16.835,-0.113 -31.272,0.657 -38.565,4.894 -4.694,2.73 -12.227,11.8 -12.227,30.731 0,6.813 0.531,17.592 7,28.59 1.464,2.491 2.677,3.65 4.325,3.915 1.8,0.289 4.32,-0.564 6.937,-1.447 6.411,-2.162 17.282,-6.131 38.288,-8.363 18.922,-2 42.714,-4.937 59.9,-13.436 a 24.773,24.773 0 0 0 14.13,-15.888 c 0.918,-3.044 1.612,-7.487 1.612,-14.195 A 59.188,59.188 0 0 0 327.81,150 Z"
       transform="translate(-39.621,-31.357)"
       inkscape:connector-curvature="0"
       style="fill:#d9000d" />
    <path
       id="Caminho_10"
       data-name="Caminho 10"
       d="m 230.473,193.477 c -1.354,-8.267 -2.755,-11.505 -4.631,-13.206 -0.337,-0.306 -0.669,-0.24 -0.759,0.245 -0.872,4.716 0.967,8.968 3.189,19.563 a 57.918,57.918 0 0 1 1.08,13.455 c -0.021,0.4 0.336,0.495 0.459,0.048 1.225,-4.427 1.502,-14.582 0.662,-20.105 z m 54.568,8.49 a 84.722,84.722 0 0 1 -16.093,5.027 c -8.985,1.954 -24.241,3.329 -31.694,11.275 -0.282,0.3 -0.067,0.574 0.305,0.336 2.485,-1.588 10.417,-5.707 27.58,-7.316 12.759,-1.035 18.864,-6.382 20.217,-8.88 0.21,-0.389 0.063,-0.603 -0.315,-0.442 z m -14.908,13.961 c -9.989,-1.905 -22.405,-0.151 -26.03,1.755 -0.259,0.136 -0.176,0.442 0.158,0.364 a 31.445,31.445 0 0 1 13.683,-0.524 20.342,20.342 0 0 0 12.184,-1.23 c 0.24,-0.111 0.25,-0.319 0.005,-0.365 z m -12.2,-26.835 c -0.712,-2.04 -2.444,-2.865 -6.345,-1.175 a 11.715,11.715 0 0 0 3.351,-9.058 c -0.6,-4.2 -3.414,-3.555 -5.674,-2.773 -2.162,0.749 -5.849,3.709 -7.656,6.15 a 103.4,103.4 0 0 1 3.223,-14.012 c 0.308,-0.888 -0.124,-1.1 -0.9,-0.352 -3.247,3.151 -5.987,8.779 -7.242,12.613 -2.118,6.469 -1.948,9.188 -2.921,21.456 -0.713,9 -1.448,15.6 -3.479,18.968 -0.173,0.287 0.1,0.466 0.386,0.209 a 17.6,17.6 0 0 0 4.511,-7.571 c 22.09,-4.193 23.925,-21.084 22.748,-24.456 z m -18.085,3.3 c 0.546,-4.424 2.335,-10.77 9.734,-12.1 0.907,-0.163 1.231,0.244 1.128,0.911 -1.07,6.945 -5.168,9.825 -10.237,11.661 -0.498,0.182 -0.69,0.064 -0.623,-0.472 z m -3.081,17.985 c -0.376,0.087 -0.562,-0.018 -0.466,-0.526 1.129,-5.956 2.353,-10.32 4.395,-12.554 a 16.419,16.419 0 0 1 9.754,-4.83 c 2.457,-0.414 2.342,0.312 1.927,2.449 -1.662,8.565 -8.755,13.883 -15.608,15.462 z m 103.682,-35.387 a 10.119,10.119 0 0 1 -2.2,2.166 3.821,3.821 0 0 0 -0.77,-2.01 c -1.141,-1.354 -3.315,-0.758 -4.506,0 -3.844,2.456 -4.3,6.585 -4.584,8.206 a 9.478,9.478 0 0 1 -3.671,3.308 c -1.216,0.515 -2.321,0.689 -2.223,-1.658 0.08,-1.906 1.344,-5.278 2.6,-6.438 0.451,-0.417 1.385,-0.8 1.494,0.132 0.052,0.443 -0.12,0.6 -0.1,1.045 0.023,0.464 0.3,0.647 0.751,0.553 0.583,-0.122 1.328,-1.346 1.342,-2.4 0.015,-1.151 -0.8,-1.6 -1.922,-1.606 -1.534,0 -3.445,1.034 -5.171,3.2 a 12.521,12.521 0 0 0 -2.34,5.983 9.359,9.359 0 0 1 -3.621,3.242 c -1.216,0.515 -2.321,0.689 -2.223,-1.658 0.08,-1.906 1.344,-5.278 2.6,-6.438 0.451,-0.417 1.385,-0.8 1.494,0.132 0.052,0.443 -0.121,0.6 -0.1,1.044 0.023,0.464 0.3,0.647 0.751,0.553 0.583,-0.121 1.328,-1.346 1.342,-2.4 0.015,-1.151 -0.8,-1.6 -1.921,-1.606 -1.534,0 -3.445,1.034 -5.172,3.2 a 12.051,12.051 0 0 0 -2.368,7.046 c -0.609,1.032 -2.281,2.621 -2.582,2.057 -0.394,-0.649 0.285,-3.035 0.682,-5.456 0.118,-0.72 0.261,-1.05 0.362,-1.774 a 1.856,1.856 0 0 0 -1.465,-2.064 c -1.118,-0.4 -1.539,0.35 -1.775,1.748 a 36.855,36.855 0 0 1 -0.748,3.975 12.639,12.639 0 0 1 -2.126,4.185 c -1.377,1.632 -1.93,1.034 -1.473,-1.307 0.174,-0.888 0.949,-4.763 1.026,-5.213 a 1.848,1.848 0 0 0 -1.458,-2.1 c -1.124,-0.383 -1.46,0.285 -1.7,1.519 -0.147,0.75 -1.274,6.7 -1.274,6.7 -0.731,2.423 -2.346,2.648 -2.873,2.324 -0.4,-0.243 -0.241,-1.723 0.264,-4.609 1.114,-6.361 1.556,-9.444 1.627,-10.916 a 1.822,1.822 0 0 0 -1.577,-1.871 c -1.387,-0.277 -1.378,0.817 -1.538,2.128 -0.112,0.912 -0.455,3.648 -0.981,6.144 a 4.184,4.184 0 0 0 -3.843,0.92 11.726,11.726 0 0 0 -4.267,7.4 11.1,11.1 0 0 0 -0.087,2.03 c -0.285,0.934 -1.944,2.47 -2.263,1.872 -0.394,-0.649 0.285,-3.035 0.682,-5.456 0.118,-0.72 0.261,-1.05 0.362,-1.774 a 1.856,1.856 0 0 0 -1.464,-2.064 c -1.118,-0.4 -1.539,0.35 -1.774,1.748 a 36.841,36.841 0 0 1 -0.748,3.975 12.64,12.64 0 0 1 -2.126,4.185 c -1.377,1.631 -1.93,1.034 -1.473,-1.307 0.174,-0.888 0.949,-4.763 1.026,-5.213 a 1.848,1.848 0 0 0 -1.458,-2.1 c -1.124,-0.382 -1.46,0.285 -1.7,1.519 -0.147,0.75 -1.274,6.7 -1.274,6.7 -0.731,2.423 -2.429,2.755 -2.873,2.324 -0.771,-0.748 -0.181,-3.153 0.318,-5.914 0.419,-2.323 -0.445,-4.74 -4.7,-3.127 -1.666,0.631 -4.936,3.052 -5.907,8.231 -0.353,1.882 -0.131,5.37 3.589,4.9 a 5.112,5.112 0 0 0 3.713,-3.034 c 0.45,1.53 1.767,1.89 3.186,1.389 a 5.861,5.861 0 0 0 2.9,-2.668 c 0.228,1.521 2.309,1.8 3.621,1.149 a 7.206,7.206 0 0 0 2.769,-2.779 c 0.249,1.662 2.094,1.874 3.288,1.5 1.346,-0.423 2.038,-1.483 2.869,-2.515 0.567,1.259 2.152,1.573 3.586,1.253 1.654,-0.37 2.444,-1.655 3.228,-2.853 0.316,1.506 2.048,1.735 3.248,1.3 a 5.9,5.9 0 0 0 2.877,-2.689 c 0.228,1.521 2.309,1.8 3.621,1.149 a 7.21,7.21 0 0 0 2.769,-2.779 c 0.249,1.662 2.094,1.874 3.288,1.5 a 6.071,6.071 0 0 0 3.034,-2.635 c 0.934,1.8 3.331,1.437 4.779,0.752 a 10.866,10.866 0 0 0 4.106,-3.651 c 0.687,2.835 3.6,2.307 5.085,1.6 a 10.9,10.9 0 0 0 4.137,-3.7 2.738,2.738 0 0 0 1.671,2 c 1.718,0.775 4.072,-0.25 5.245,-1.381 a 9.711,9.711 0 0 0 2.573,-4.771 14.05,14.05 0 0 0 0.283,-1.611 6.263,6.263 0 0 0 2.226,-2.493 c 0.791,-1.539 0.609,-2.753 0.007,-1.947 z m -76.469,24.746 c -1.1,1.174 -1.877,1.031 -1.95,-0.724 -0.088,-2.11 0.826,-5.665 3.258,-7.268 0.994,-0.661 1.152,0.056 1.179,0.3 a 10.757,10.757 0 0 1 -2.487,7.692 z m 27.957,-13.08 c 0.022,1.223 -0.526,5.365 -2.64,7.678 -0.811,0.887 -1.756,1.148 -1.776,-0.992 -0.02,-2.028 1.027,-5.727 3.482,-7.236 1.026,-0.637 0.929,0.308 0.933,0.55 z m 43.5,-9.845 a 4.321,4.321 0 0 1 0.213,1.615 2.444,2.444 0 0 1 -1.771,-0.02 c -0.871,-0.583 0.246,-1.622 0.484,-1.829 0.604,-0.498 0.872,-0.17 1.071,0.234 z m -0.891,6.562 c -1.584,3.01 -2.261,2.049 -2.516,0.8 a 9.55,9.55 0 0 1 0.588,-5.085 2.966,2.966 0 0 0 0.524,0.551 3.555,3.555 0 0 0 2.357,0.657 10.07,10.07 0 0 1 -0.956,3.077 z m 5.24,1.208 h 0.181 a 0.285,0.285 0 0 1 0.324,0.247 1.019,1.019 0 0 0 0.125,0.372 h 0.381 a 1.277,1.277 0 0 1 -0.115,-0.381 c -0.048,-0.21 -0.124,-0.334 -0.277,-0.381 v -0.019 a 0.413,0.413 0 0 0 0.323,-0.373 0.407,0.407 0 0 0 -0.162,-0.334 0.863,0.863 0 0 0 -0.543,-0.123 3.025,3.025 0 0 0 -0.6,0.058 v 1.555 h 0.362 z m 0.008,-0.706 a 0.934,0.934 0 0 1 0.2,-0.02 c 0.238,0 0.343,0.095 0.344,0.238 0,0.162 -0.171,0.229 -0.371,0.23 h -0.172 z m 0.246,-1.05 a 1.57,1.57 0 1 0 0.005,3.138 1.569002,1.569002 0 1 0 -0.005,-3.138 z m -0.009,0.315 a 1.25,1.25 0 1 1 -1.2,1.252 1.207,1.207 0 0 1 1.197,-1.252 z"
       transform="translate(-59.066,-46.983)"
       inkscape:connector-curvature="0"
       style="fill:#ffffff" />
  </g>
</svg>
