<?xml version="1.0" encoding="UTF-8"?>
<svg xmlns="http://www.w3.org/2000/svg" xmlns:xlink="http://www.w3.org/1999/xlink" width="682pt" height="205pt" viewBox="0 0 682 205" version="1.1">
<g id="surface1">
<path style=" stroke:none;fill-rule:nonzero;fill:rgb(14.099121%,62.399292%,42.698669%);fill-opacity:1;" d="M 201.570313 104.359375 C 202.070313 107.519531 203.132813 110.527344 204.988281 113.015625 C 206.265625 114.722656 207.796875 115.585938 209.34375 116.023438 C 210.953125 116.472656 212.648438 116.480469 214.117188 116.480469 C 216.769531 116.480469 218.640625 114.84375 219.847656 113.777344 L 219.867188 113.757813 L 219.871094 113.757813 C 221.777344 112.074219 221.941406 111.625 222.199219 110.929688 C 222.417969 110.332031 222.6875 109.597656 223.589844 108.261719 C 226.207031 104.375 231.757813 103.507813 235.246094 102.960938 C 236.226563 102.808594 237.011719 102.683594 237.347656 102.585938 C 237.507813 102.183594 237.582031 101.769531 237.578125 101.371094 C 237.574219 100.8125 237.414063 100.269531 237.121094 99.796875 C 236.828125 99.324219 236.398438 98.925781 235.851563 98.652344 C 235.328125 98.394531 234.695313 98.246094 233.972656 98.25 L 233.945313 98.25 C 232.546875 98.226563 230.851563 98.800781 229.339844 99.324219 C 229.3125 99.335938 229.28125 99.347656 229.253906 99.359375 L 228.722656 99.539063 L 228.71875 99.539063 C 228.609375 99.578125 228.453125 99.636719 228.285156 99.695313 C 227.828125 99.863281 227.328125 100.050781 226.785156 100.160156 C 225.367188 100.453125 224.074219 100.226563 223.675781 98.296875 C 223.464844 97.273438 223.808594 96.398438 224.519531 95.65625 C 225.179688 94.96875 226.1875 94.414063 227.332031 93.976563 C 229.261719 93.234375 231.671875 92.695313 234.085938 92.460938 C 236.394531 92.230469 238.730469 92.273438 240.6875 92.667969 C 246.53125 93.84375 246.53125 99.488281 246.53125 104.613281 L 246.535156 104.613281 L 246.535156 104.738281 L 246.527344 109.308594 C 246.527344 110.835938 246.519531 112.363281 246.511719 113.886719 C 246.496094 116.558594 247.269531 116.761719 248.105469 116.984375 C 248.828125 117.175781 249.578125 117.371094 250.296875 118.070313 C 250.484375 118.238281 250.613281 118.472656 250.644531 118.746094 C 250.796875 120.058594 250.289063 120.84375 249.398438 121.304688 C 248.71875 121.660156 247.84375 121.734375 246.917969 121.703125 C 246.199219 121.679688 245.449219 121.691406 244.695313 121.703125 C 243.40625 121.726563 242.101563 121.75 240.914063 121.605469 C 239.328125 121.410156 238.75 120.824219 238.273438 120.339844 L 238.25 120.316406 C 238.136719 120.378906 238.007813 120.46875 237.859375 120.566406 C 237.136719 121.046875 236.164063 121.699219 234.25 122.0625 C 232.828125 122.332031 231.363281 122.457031 229.941406 122.292969 L 229.910156 122.289063 C 228.421875 122.113281 226.984375 121.621094 225.695313 120.652344 C 225.070313 120.1875 224.5625 119.714844 224.117188 119.296875 C 223.714844 118.925781 223.378906 118.613281 223.21875 118.492188 C 222.578125 118.714844 221.960938 119.160156 221.273438 119.65625 C 220.476563 120.230469 219.601563 120.863281 218.4375 121.386719 C 215.910156 122.523438 212.671875 122.945313 209.476563 122.71875 C 206.265625 122.492188 203.074219 121.605469 200.679688 120.132813 C 198.804688 118.980469 197.269531 117.75 196.011719 116.410156 C 194.746094 115.0625 193.761719 113.609375 192.992188 112.027344 C 192.140625 110.269531 191.503906 108.386719 191.066406 106.441406 C 190.613281 104.425781 190.378906 102.335938 190.347656 100.246094 C 190.292969 96.539063 190.949219 91.898438 192.53125 87.808594 C 193.839844 84.4375 195.777344 81.421875 198.476563 79.539063 C 200.324219 78.257813 201.976563 77.402344 203.796875 76.867188 C 205.597656 76.339844 207.53125 76.132813 209.953125 76.136719 C 211.714844 76.140625 212.867188 76.308594 214.039063 76.476563 C 214.789063 76.585938 215.554688 76.695313 216.480469 76.757813 C 218.070313 76.867188 218.707031 76.542969 219.246094 76.269531 C 220.046875 75.863281 220.714844 75.523438 222.3125 75.890625 C 222.550781 75.945313 222.773438 76.085938 222.929688 76.300781 C 222.996094 76.386719 223.429688 77.8125 223.894531 79.484375 C 224.261719 80.820313 224.648438 82.214844 224.898438 83.140625 L 224.972656 83.386719 L 224.96875 83.390625 C 225.132813 83.929688 225.429688 84.902344 225.515625 85.800781 L 225.515625 85.804688 C 225.652344 87.195313 225.339844 88.421875 223.847656 88.566406 L 223.84375 88.566406 C 223.285156 88.621094 222.699219 88.398438 222.117188 88.007813 C 221.664063 87.703125 221.195313 87.289063 220.742188 86.839844 C 220.0625 86.167969 219.441406 85.457031 218.960938 84.902344 L 218.960938 84.898438 C 218.605469 84.492188 218.332031 84.175781 218.265625 84.128906 C 217.871094 83.820313 217.453125 83.542969 217.015625 83.289063 L 217.015625 83.285156 C 214.902344 82.074219 212.511719 81.644531 210.300781 81.964844 C 208.136719 82.277344 206.152344 83.316406 204.8125 85.050781 C 204.601563 85.324219 204.398438 85.621094 204.214844 85.949219 L 204.207031 85.949219 C 203.621094 86.96875 203.140625 88.054688 202.75 89.191406 C 202.355469 90.339844 202.058594 91.515625 201.84375 92.707031 C 201.191406 96.363281 200.957031 100.472656 201.570313 104.359375 Z M 237.378906 111.140625 C 237.453125 109.769531 237.332031 108.527344 237.074219 107.820313 C 236.417969 108.085938 235.789063 108.265625 235.175781 108.433594 C 233.824219 108.816406 232.566406 109.167969 231.753906 110.507813 L 231.75 110.503906 L 231.730469 110.542969 L 231.71875 110.5625 C 231.238281 111.390625 231.054688 112.542969 231.214844 113.628906 C 231.359375 114.640625 231.800781 115.5625 232.5625 116.042969 L 232.578125 116.050781 L 232.640625 116.089844 C 234.453125 117.136719 235.621094 116.566406 236.308594 115.378906 C 236.964844 114.253906 237.292969 112.652344 237.378906 111.140625 Z M 254.222656 122.445313 C 253.683594 122.4375 253.269531 122.421875 253.066406 122.398438 L 253.070313 122.398438 C 252.84375 122.371094 252.625 122.273438 252.449219 122.101563 C 251.941406 121.601563 250.785156 118.84375 250.277344 116.488281 C 250.09375 115.628906 249.980469 114.785156 250 114.082031 C 250.027344 113.125 250.3125 112.363281 250.972656 111.960938 C 251.273438 111.777344 251.617188 111.691406 252.011719 111.714844 C 252.773438 111.757813 253.703125 112.675781 254.855469 113.8125 C 256.140625 115.074219 257.757813 116.667969 259.011719 117.179688 L 259.011719 117.183594 C 259.039063 117.195313 259.117188 117.222656 259.242188 117.265625 C 260.1875 117.589844 261.246094 117.597656 262.152344 117.316406 C 262.972656 117.0625 263.644531 116.570313 263.929688 115.871094 L 263.933594 115.875 L 263.933594 115.867188 L 263.949219 115.828125 L 263.972656 115.765625 C 264.195313 115.109375 264.15625 114.5625 263.9375 114.101563 C 263.6875 113.578125 263.214844 113.113281 262.621094 112.699219 C 261.613281 111.992188 260.539063 111.378906 259.476563 110.773438 C 257.203125 109.476563 254.984375 108.210938 253.171875 105.953125 C 251.710938 104.136719 250.796875 102.066406 250.824219 99.996094 C 250.855469 98.128906 251.636719 96.304688 253.445313 94.714844 C 254.238281 94.019531 255.023438 93.511719 255.886719 93.15625 C 256.753906 92.800781 257.675781 92.605469 258.730469 92.542969 C 259.988281 92.46875 261.371094 92.527344 262.707031 92.589844 C 264.113281 92.652344 265.464844 92.710938 266.480469 92.589844 C 267.261719 92.496094 267.9375 92.664063 268.515625 93.019531 L 268.515625 93.023438 C 269.117188 93.394531 269.582031 93.953125 269.941406 94.617188 C 270.410156 95.484375 270.695313 96.542969 270.867188 97.546875 C 271.058594 98.648438 271.054688 99.785156 270.996094 100.578125 L 270.996094 100.582031 C 271.128906 100.9375 271.058594 101.316406 270.84375 101.597656 L 270.835938 101.613281 L 270.835938 101.609375 C 270.71875 101.757813 270.5625 101.875 270.375 101.945313 C 268.503906 102.640625 267.4375 101.328125 266.289063 99.914063 C 266.171875 99.765625 266.046875 99.613281 265.875 99.414063 C 265.660156 99.15625 265.4375 98.910156 265.203125 98.699219 C 265.003906 98.511719 264.796875 98.359375 264.589844 98.253906 C 264.414063 98.171875 264.195313 98.09375 263.941406 98.03125 C 263.105469 97.820313 262.027344 97.785156 261.070313 97.980469 C 260.257813 98.140625 259.574219 98.449219 259.339844 98.925781 C 259.316406 98.96875 259.300781 99.011719 259.285156 99.0625 L 259.28125 99.089844 C 258.816406 100.9375 262.234375 102.796875 265.109375 104.351563 C 266.410156 105.058594 267.617188 105.714844 268.457031 106.375 L 268.453125 106.375 C 270.191406 107.722656 271.382813 109.574219 271.914063 111.53125 C 272.453125 113.519531 272.324219 115.628906 271.410156 117.457031 L 271.402344 117.457031 C 270.921875 118.425781 270.246094 119.21875 269.472656 119.890625 C 268.71875 120.535156 267.882813 121.066406 267.027344 121.527344 C 266.410156 121.859375 265.847656 122.085938 265.222656 122.234375 C 264.628906 122.378906 263.976563 122.445313 263.15625 122.464844 C 261.640625 122.503906 260.109375 122.488281 258.582031 122.46875 C 257.710938 122.460938 256.835938 122.453125 255.972656 122.453125 C 255.316406 122.457031 254.710938 122.453125 254.222656 122.445313 Z M 280.835938 122.289063 C 279.347656 122.113281 277.910156 121.621094 276.621094 120.652344 C 274.410156 118.996094 273.105469 116.992188 272.777344 114.796875 C 272.457031 112.660156 273.070313 110.386719 274.6875 108.128906 C 274.699219 108.109375 274.714844 108.089844 274.726563 108.066406 C 275.109375 107.539063 275.546875 107.042969 276.046875 106.59375 C 276.546875 106.140625 277.113281 105.734375 277.757813 105.371094 C 280.46875 103.851563 283.804688 103.332031 286.171875 102.960938 C 287.152344 102.808594 287.9375 102.683594 288.273438 102.585938 C 288.433594 102.183594 288.507813 101.769531 288.503906 101.371094 C 288.5 100.8125 288.339844 100.269531 288.046875 99.796875 C 287.753906 99.324219 287.324219 98.925781 286.777344 98.652344 C 286.253906 98.394531 285.621094 98.246094 284.898438 98.25 L 284.871094 98.25 C 283.472656 98.226563 281.773438 98.800781 280.265625 99.324219 C 280.238281 99.335938 280.210938 99.347656 280.179688 99.359375 L 279.648438 99.539063 L 279.644531 99.539063 C 279.535156 99.578125 279.378906 99.636719 279.210938 99.695313 C 278.757813 99.863281 278.253906 100.050781 277.714844 100.160156 C 276.289063 100.453125 275 100.226563 274.601563 98.296875 C 274.394531 97.273438 274.734375 96.398438 275.445313 95.65625 C 276.105469 94.96875 277.113281 94.414063 278.257813 93.976563 C 280.1875 93.234375 282.597656 92.695313 285.011719 92.460938 C 287.320313 92.230469 289.65625 92.273438 291.613281 92.667969 C 297.457031 93.84375 297.457031 99.488281 297.457031 104.613281 L 297.460938 104.613281 L 297.460938 104.738281 L 297.453125 109.308594 C 297.453125 110.835938 297.445313 112.363281 297.4375 113.886719 C 297.421875 116.558594 298.195313 116.761719 299.03125 116.984375 C 299.753906 117.175781 300.503906 117.371094 301.222656 118.070313 C 301.410156 118.238281 301.539063 118.472656 301.570313 118.746094 C 301.722656 120.058594 301.214844 120.84375 300.324219 121.304688 C 299.644531 121.660156 298.765625 121.734375 297.84375 121.703125 C 297.128906 121.679688 296.375 121.691406 295.621094 121.703125 C 294.332031 121.726563 293.027344 121.75 291.839844 121.605469 C 290.253906 121.410156 289.675781 120.824219 289.199219 120.339844 L 289.175781 120.316406 C 289.0625 120.378906 288.933594 120.46875 288.785156 120.566406 C 288.0625 121.046875 287.089844 121.699219 285.175781 122.0625 C 283.753906 122.332031 282.289063 122.457031 280.867188 122.292969 Z M 288.300781 111.140625 C 288.378906 109.769531 288.257813 108.527344 288 107.820313 C 287.34375 108.085938 286.714844 108.265625 286.101563 108.433594 C 284.746094 108.816406 283.492188 109.167969 282.675781 110.507813 L 282.675781 110.503906 L 282.65625 110.542969 L 282.644531 110.5625 C 282.164063 111.390625 281.980469 112.542969 282.140625 113.628906 C 282.285156 114.640625 282.726563 115.5625 283.488281 116.042969 L 283.503906 116.050781 L 283.566406 116.089844 C 285.378906 117.136719 286.546875 116.566406 287.234375 115.378906 C 287.886719 114.253906 288.21875 112.652344 288.300781 111.140625 Z M 324.453125 90.144531 C 325.070313 90.105469 325.566406 90.296875 325.863281 90.78125 C 325.941406 90.898438 325.984375 91.039063 325.984375 91.191406 L 325.871094 116.941406 C 325.871094 117.074219 325.867188 117.183594 325.867188 117.289063 L 325.867188 117.292969 C 325.855469 117.746094 325.851563 118.035156 326.234375 118.042969 C 326.585938 118.046875 327.007813 118.0625 327.402344 118.121094 C 327.894531 118.199219 328.351563 118.355469 328.65625 118.664063 C 329.035156 119.054688 329.21875 119.523438 329.226563 119.992188 C 329.234375 120.257813 329.179688 120.519531 329.078125 120.761719 C 328.976563 121 328.824219 121.21875 328.628906 121.414063 C 328.222656 121.8125 327.613281 122.085938 326.84375 122.097656 L 322.070313 122.195313 C 320.984375 122.214844 320.503906 121.4375 320.085938 120.675781 C 319.617188 120.96875 319.179688 121.195313 318.757813 121.367188 C 318.121094 121.625 317.519531 121.765625 316.894531 121.839844 C 316.507813 121.886719 316.113281 121.917969 315.710938 121.933594 C 313.203125 122.03125 311.1875 121.375 309.707031 120.035156 C 308.234375 118.707031 307.324219 116.726563 307.007813 114.164063 C 306.957031 113.730469 306.921875 113.261719 306.898438 112.761719 C 306.832031 111.007813 307.058594 109.199219 307.585938 107.546875 C 308.085938 105.988281 308.859375 104.5625 309.910156 103.445313 C 310.832031 102.472656 312.058594 101.921875 313.453125 101.675781 C 314.773438 101.441406 316.253906 101.480469 317.761719 101.675781 C 318.445313 101.761719 319.0625 101.964844 319.550781 102.152344 L 319.566406 96.335938 C 319.484375 96.355469 319.339844 96.410156 319.179688 96.429688 C 318.796875 96.472656 318.417969 96.511719 318.027344 96.386719 C 317.585938 96.246094 317.125 96.027344 316.808594 95.734375 C 316.546875 95.496094 316.371094 95.207031 316.332031 94.859375 C 316.289063 94.507813 316.394531 94.148438 316.695313 93.796875 C 316.976563 93.46875 317.464844 93.128906 318.238281 92.785156 L 318.242188 92.785156 L 322.777344 90.640625 C 323.375 90.355469 323.964844 90.171875 324.453125 90.144531 Z M 317.074219 105.578125 C 316.804688 105.585938 316.53125 105.636719 316.265625 105.738281 L 316.261719 105.742188 C 315.078125 106.300781 314.269531 108.304688 313.984375 110.554688 C 313.824219 111.808594 313.839844 113.128906 314.050781 114.328125 C 314.253906 115.46875 314.632813 116.480469 315.210938 117.167969 C 315.734375 117.792969 316.445313 118.148438 317.359375 118.070313 L 317.367188 118.070313 C 317.890625 118.03125 318.484375 117.820313 318.894531 117.40625 C 319.191406 117.101563 319.390625 116.667969 319.378906 116.078125 L 319.167969 107.3125 C 319.160156 107.105469 319.121094 106.910156 319.046875 106.734375 C 318.90625 106.386719 318.636719 106.09375 318.296875 105.894531 C 317.945313 105.683594 317.515625 105.570313 317.074219 105.578125 Z M 344.242188 102.617188 C 347.359375 104.550781 349.367188 108.132813 348.4375 113.433594 C 347.628906 118.046875 344.578125 120.769531 341.027344 121.730469 C 339.53125 122.132813 337.945313 122.21875 336.402344 122 C 334.855469 121.78125 333.351563 121.25 332.019531 120.421875 C 328.855469 118.453125 326.671875 114.816406 327.234375 109.652344 C 327.726563 105.132813 331.015625 102.324219 334.882813 101.335938 C 336.441406 100.9375 338.105469 100.835938 339.710938 101.046875 C 341.328125 101.257813 342.890625 101.777344 344.242188 102.617188 Z M 341.058594 107.179688 C 340.652344 106.3125 340.0625 105.632813 339.242188 105.28125 C 338.972656 105.167969 338.703125 105.082031 338.441406 105.019531 C 337.566406 104.816406 336.8125 104.945313 336.199219 105.316406 C 335.5625 105.707031 335.050781 106.367188 334.695313 107.203125 C 334.554688 107.535156 334.4375 107.902344 334.347656 108.296875 C 334.015625 109.714844 333.9375 111.386719 334.121094 112.972656 C 334.296875 114.421875 334.691406 115.777344 335.320313 116.765625 C 335.605469 117.210938 335.945313 117.546875 336.316406 117.785156 C 336.789063 118.089844 337.3125 118.234375 337.835938 118.226563 C 338.363281 118.21875 338.894531 118.054688 339.367188 117.75 C 339.765625 117.496094 340.125 117.140625 340.414063 116.691406 C 340.847656 116.015625 341.1875 115.160156 341.421875 114.210938 C 341.667969 113.210938 341.792969 112.117188 341.789063 111.039063 C 341.78125 109.648438 341.566406 108.273438 341.058594 107.179688 Z M 353.597656 81.707031 C 353.117188 80.550781 353.824219 79.480469 356.933594 78.1875 C 359.675781 77.046875 363.898438 76.285156 368.121094 75.996094 C 372.355469 75.710938 376.636719 75.894531 379.460938 76.652344 C 383.140625 77.640625 385.714844 79.972656 387.242188 83.054688 C 388.871094 86.332031 389.292969 90.453125 388.589844 94.671875 C 386.769531 105.636719 373.691406 105.582031 368.976563 105.566406 C 368.324219 105.5625 368.359375 105.117188 368.136719 105.339844 L 368.132813 105.339844 C 368.109375 105.363281 368.082031 105.386719 368.050781 105.410156 L 368.367188 116.3125 C 369.144531 116.316406 369.816406 116.359375 370.394531 116.4375 C 371.105469 116.53125 371.6875 116.683594 372.148438 116.886719 L 372.144531 116.886719 C 372.867188 117.207031 373.304688 117.707031 373.503906 118.265625 C 373.652344 118.683594 373.660156 119.125 373.550781 119.542969 C 373.449219 119.925781 373.246094 120.292969 372.960938 120.601563 C 372.476563 121.125 371.75 121.488281 370.898438 121.488281 L 355.859375 121.488281 C 354.9375 121.488281 354.242188 121.136719 353.816406 120.625 C 353.554688 120.304688 353.402344 119.925781 353.363281 119.527344 C 353.328125 119.148438 353.398438 118.753906 353.582031 118.382813 C 353.910156 117.710938 354.613281 117.097656 355.710938 116.808594 C 356.261719 116.660156 356.824219 116.480469 357.191406 116.183594 C 357.480469 115.949219 357.675781 115.582031 357.675781 114.984375 L 357.675781 85.6875 C 357.675781 84.613281 356.429688 83.886719 355.445313 83.316406 C 354.605469 82.828125 353.890625 82.410156 353.597656 81.707031 Z M 374.824219 99.058594 C 375.703125 98.625 376.429688 97.980469 376.984375 97.191406 C 377.8125 96.003906 378.265625 94.148438 378.40625 92.191406 C 378.566406 89.921875 378.300781 87.5625 377.722656 85.929688 C 377.269531 84.65625 376.558594 83.496094 375.597656 82.679688 C 374.785156 81.988281 373.773438 81.53125 372.566406 81.453125 C 370.535156 81.320313 369.429688 81.816406 368.851563 82.652344 C 368.222656 83.566406 368.085938 84.976563 368.074219 86.476563 C 368.0625 88.039063 368.078125 89.605469 368.097656 91.171875 C 368.117188 93.363281 368.140625 95.550781 368.09375 97.738281 C 368.054688 99.457031 368.226563 99.78125 368.765625 99.789063 C 369.039063 99.796875 369.417969 99.777344 369.855469 99.753906 L 369.859375 99.753906 C 370.417969 99.722656 371.070313 99.6875 371.878906 99.691406 C 372.996094 99.703125 373.984375 99.472656 374.824219 99.058594 Z M 395.058594 122.289063 C 393.570313 122.113281 392.132813 121.621094 390.84375 120.652344 C 388.636719 118.996094 387.328125 116.992188 387 114.796875 C 386.679688 112.660156 387.292969 110.386719 388.910156 108.128906 C 388.921875 108.109375 388.9375 108.089844 388.949219 108.066406 C 389.335938 107.539063 389.769531 107.042969 390.269531 106.59375 C 390.769531 106.140625 391.335938 105.734375 391.980469 105.371094 C 394.691406 103.851563 398.027344 103.332031 400.394531 102.960938 C 401.375 102.808594 402.160156 102.683594 402.496094 102.585938 C 402.65625 102.183594 402.730469 101.769531 402.726563 101.371094 C 402.722656 100.8125 402.5625 100.269531 402.269531 99.796875 C 401.976563 99.324219 401.546875 98.925781 401 98.652344 C 400.476563 98.394531 399.847656 98.246094 399.121094 98.25 L 399.09375 98.25 C 397.695313 98.226563 396 98.800781 394.488281 99.324219 C 394.460938 99.335938 394.433594 99.347656 394.402344 99.359375 L 393.871094 99.539063 L 393.867188 99.539063 C 393.757813 99.578125 393.601563 99.636719 393.433594 99.695313 C 392.980469 99.863281 392.476563 100.050781 391.9375 100.160156 C 390.515625 100.453125 389.222656 100.226563 388.824219 98.296875 C 388.617188 97.273438 388.957031 96.398438 389.667969 95.65625 C 390.328125 94.96875 391.335938 94.414063 392.480469 93.976563 C 394.410156 93.234375 396.820313 92.695313 399.234375 92.460938 C 401.542969 92.230469 403.882813 92.273438 405.839844 92.667969 C 411.679688 93.84375 411.679688 99.488281 411.679688 104.613281 L 411.683594 104.613281 L 411.683594 104.738281 L 411.679688 109.308594 C 411.675781 110.835938 411.671875 112.363281 411.660156 113.886719 C 411.644531 116.558594 412.417969 116.761719 413.253906 116.984375 C 413.976563 117.175781 414.730469 117.371094 415.445313 118.070313 C 415.632813 118.238281 415.765625 118.472656 415.796875 118.746094 C 415.945313 120.058594 415.4375 120.84375 414.546875 121.304688 C 413.867188 121.660156 412.992188 121.734375 412.066406 121.703125 C 411.351563 121.679688 410.601563 121.691406 409.84375 121.703125 C 408.554688 121.726563 407.25 121.75 406.0625 121.605469 C 404.476563 121.410156 403.898438 120.824219 403.421875 120.339844 L 403.398438 120.316406 C 403.285156 120.378906 403.15625 120.46875 403.007813 120.566406 C 402.285156 121.046875 401.3125 121.699219 399.398438 122.0625 C 397.980469 122.332031 396.515625 122.457031 395.09375 122.292969 Z M 402.523438 111.140625 C 402.601563 109.769531 402.480469 108.527344 402.222656 107.820313 C 401.566406 108.085938 400.9375 108.265625 400.324219 108.433594 C 398.972656 108.816406 397.714844 109.167969 396.898438 110.507813 L 396.898438 110.503906 L 396.878906 110.542969 L 396.867188 110.5625 C 396.386719 111.390625 396.203125 112.542969 396.363281 113.628906 C 396.507813 114.640625 396.949219 115.5625 397.714844 116.042969 L 397.726563 116.050781 L 397.789063 116.089844 C 399.605469 117.136719 400.769531 116.566406 401.460938 115.378906 C 402.113281 114.253906 402.441406 112.652344 402.523438 111.140625 Z M 437.96875 94.6875 C 442.453125 97.472656 445.351563 102.628906 444.011719 110.265625 C 442.84375 116.910156 438.449219 120.835938 433.332031 122.21875 C 431.179688 122.800781 428.894531 122.925781 426.671875 122.605469 C 424.445313 122.289063 422.277344 121.527344 420.363281 120.332031 C 415.804688 117.496094 412.65625 112.257813 413.464844 104.820313 C 414.171875 98.308594 418.914063 94.261719 424.480469 92.839844 C 426.730469 92.265625 429.121094 92.121094 431.4375 92.421875 C 433.769531 92.726563 436.019531 93.476563 437.96875 94.6875 Z M 433.378906 101.257813 C 432.796875 100.011719 431.945313 99.027344 430.761719 98.527344 C 430.375 98.363281 429.988281 98.234375 429.613281 98.148438 C 428.351563 97.855469 427.261719 98.039063 426.382813 98.574219 C 425.460938 99.136719 424.726563 100.089844 424.214844 101.292969 C 424.011719 101.769531 423.84375 102.296875 423.710938 102.867188 C 423.234375 104.910156 423.117188 107.320313 423.390625 109.601563 C 423.636719 111.691406 424.207031 113.644531 425.117188 115.066406 C 425.527344 115.707031 426.015625 116.195313 426.546875 116.535156 C 427.230469 116.976563 427.984375 117.179688 428.738281 117.167969 C 429.496094 117.15625 430.261719 116.921875 430.945313 116.484375 C 431.519531 116.117188 432.035156 115.605469 432.453125 114.960938 C 433.078125 113.988281 433.566406 112.753906 433.902344 111.386719 C 434.257813 109.945313 434.4375 108.371094 434.429688 106.820313 C 434.421875 104.8125 434.109375 102.835938 433.378906 101.257813 Z M 467.320313 90.144531 C 467.9375 90.105469 468.433594 90.296875 468.730469 90.78125 C 468.808594 90.898438 468.851563 91.039063 468.851563 91.191406 L 468.738281 116.941406 C 468.738281 117.074219 468.734375 117.183594 468.734375 117.289063 L 468.734375 117.292969 C 468.722656 117.746094 468.71875 118.035156 469.105469 118.042969 C 469.453125 118.046875 469.871094 118.0625 470.269531 118.121094 C 470.761719 118.199219 471.21875 118.355469 471.523438 118.664063 C 471.902344 119.054688 472.085938 119.523438 472.09375 119.992188 C 472.101563 120.257813 472.046875 120.519531 471.945313 120.761719 C 471.84375 121 471.691406 121.21875 471.496094 121.414063 C 471.089844 121.8125 470.480469 122.085938 469.710938 122.097656 L 464.9375 122.195313 C 463.851563 122.214844 463.371094 121.4375 462.949219 120.675781 C 462.484375 120.96875 462.046875 121.195313 461.625 121.367188 C 460.988281 121.625 460.386719 121.765625 459.761719 121.839844 C 459.375 121.886719 458.980469 121.917969 458.578125 121.933594 C 456.070313 122.03125 454.054688 121.375 452.574219 120.035156 C 451.101563 118.707031 450.191406 116.726563 449.875 114.164063 C 449.824219 113.730469 449.785156 113.261719 449.769531 112.761719 C 449.699219 111.007813 449.925781 109.199219 450.453125 107.546875 C 450.953125 105.988281 451.726563 104.5625 452.777344 103.445313 C 453.699219 102.472656 454.925781 101.921875 456.320313 101.675781 C 457.640625 101.441406 459.121094 101.480469 460.628906 101.675781 C 461.3125 101.761719 461.929688 101.964844 462.414063 102.152344 L 462.433594 96.335938 C 462.351563 96.355469 462.207031 96.410156 462.046875 96.429688 C 461.664063 96.472656 461.285156 96.511719 460.894531 96.386719 C 460.453125 96.246094 459.992188 96.027344 459.675781 95.734375 C 459.414063 95.496094 459.238281 95.207031 459.199219 94.859375 C 459.15625 94.507813 459.261719 94.148438 459.5625 93.796875 C 459.84375 93.46875 460.332031 93.128906 461.105469 92.785156 L 461.109375 92.785156 L 465.644531 90.640625 C 466.242188 90.355469 466.828125 90.171875 467.320313 90.144531 Z M 459.941406 105.578125 C 459.671875 105.585938 459.398438 105.636719 459.132813 105.738281 L 459.128906 105.742188 C 457.945313 106.300781 457.136719 108.304688 456.851563 110.554688 C 456.691406 111.808594 456.703125 113.128906 456.917969 114.328125 C 457.117188 115.46875 457.5 116.480469 458.078125 117.167969 C 458.601563 117.792969 459.3125 118.148438 460.230469 118.070313 L 460.234375 118.070313 C 460.757813 118.03125 461.351563 117.820313 461.761719 117.40625 C 462.058594 117.101563 462.257813 116.667969 462.242188 116.078125 L 462.035156 107.3125 C 462.027344 107.105469 461.988281 106.910156 461.914063 106.734375 C 461.773438 106.386719 461.503906 106.09375 461.164063 105.894531 C 460.8125 105.683594 460.382813 105.570313 459.941406 105.578125 Z M 488.320313 107.136719 C 488.328125 107.59375 488.273438 108.074219 488.152344 108.574219 C 487.828125 109.914063 483.375 112.324219 481.210938 113.5 C 480.832031 113.703125 480.519531 113.871094 480.367188 113.957031 L 480.316406 113.988281 C 480.183594 114.066406 479.96875 114.175781 479.707031 114.304688 C 478.785156 114.773438 477.179688 115.585938 477.199219 115.917969 C 477.207031 116.058594 477.34375 116.28125 477.550781 116.53125 C 477.851563 116.894531 478.273438 117.257813 478.710938 117.554688 C 479.351563 117.992188 480.007813 118.191406 480.675781 118.207031 C 481.371094 118.226563 482.105469 118.050781 482.867188 117.742188 C 483.152344 117.625 483.472656 117.488281 483.800781 117.347656 C 484.347656 117.113281 484.910156 116.867188 485.605469 116.609375 C 486.070313 116.4375 486.53125 116.324219 486.921875 116.296875 C 487.378906 116.261719 487.785156 116.335938 488.09375 116.539063 C 488.109375 116.550781 488.128906 116.5625 488.148438 116.574219 L 488.175781 116.597656 L 488.199219 116.617188 C 488.535156 116.898438 488.691406 117.292969 488.597656 117.8125 C 488.535156 118.144531 488.359375 118.535156 488.035156 118.992188 C 487.949219 119.113281 487.84375 119.246094 487.722656 119.394531 L 487.691406 119.429688 C 487.390625 119.78125 486.992188 120.144531 486.527344 120.488281 C 486.101563 120.800781 485.617188 121.101563 485.09375 121.371094 L 485.054688 121.394531 C 483.757813 122.054688 482.375 122.414063 480.976563 122.492188 C 479.546875 122.574219 478.101563 122.355469 476.703125 121.863281 C 474.117188 120.953125 472.085938 119.234375 470.839844 117.066406 C 469.605469 114.914063 469.148438 112.320313 469.6875 109.628906 C 470.195313 107.101563 471.398438 105 473.148438 103.523438 C 474.863281 102.074219 477.097656 101.234375 479.695313 101.191406 C 480.746094 101.171875 481.792969 101.285156 482.769531 101.523438 C 484.269531 101.886719 485.621094 102.542969 486.609375 103.453125 C 487.648438 104.414063 488.292969 105.652344 488.320313 107.136719 Z M 478.890625 110.316406 C 480.160156 109.554688 481.535156 108.726563 481.953125 107.382813 C 482.070313 107.019531 482.070313 106.707031 481.988281 106.449219 C 481.882813 106.121094 481.632813 105.847656 481.300781 105.640625 C 480.929688 105.410156 480.464844 105.269531 479.992188 105.226563 C 479.402344 105.171875 478.8125 105.269531 478.375 105.539063 C 478.144531 105.683594 477.929688 105.886719 477.734375 106.140625 C 477.519531 106.414063 477.328125 106.746094 477.152344 107.136719 C 476.984375 107.511719 476.84375 107.898438 476.730469 108.257813 L 476.714844 108.316406 C 476.570313 108.789063 476.476563 109.214844 476.421875 109.539063 C 476.15625 111.210938 476.089844 111.824219 476.160156 111.835938 C 476.382813 111.871094 477.117188 111.414063 478.085938 110.8125 L 478.304688 110.675781 C 478.4375 110.59375 478.640625 110.46875 478.855469 110.34375 Z M 524.324219 120.90625 C 522.78125 121.761719 521.410156 122.515625 520.527344 123.316406 C 521.066406 123.464844 521.574219 123.605469 522.066406 123.746094 C 526.160156 124.902344 529.109375 125.734375 533.277344 123.085938 C 534.195313 122.503906 534.945313 122.261719 535.53125 122.273438 C 536.164063 122.289063 536.628906 122.550781 536.945313 123.015625 C 537.195313 123.382813 537.300781 123.84375 537.28125 124.367188 C 537.242188 125.289063 536.78125 126.5625 536 127.839844 C 534.269531 130.671875 531.785156 132.378906 529.007813 133.082031 C 526.054688 133.824219 522.773438 133.421875 519.726563 132.015625 C 519.085938 131.722656 518.292969 131.332031 517.527344 130.957031 C 516.148438 130.28125 514.867188 129.652344 514.117188 129.4375 C 511.859375 128.796875 510.308594 129.996094 509.023438 130.992188 C 507.304688 132.320313 505.90625 133.402344 503.902344 131.6875 C 501.808594 129.902344 502.976563 127.808594 504.917969 126.03125 C 506.476563 124.605469 508.566406 123.398438 509.339844 122.960938 C 510.730469 122.175781 511.511719 122.398438 511.398438 122.195313 C 511.367188 122.144531 510.773438 122.09375 509.925781 121.898438 C 508.703125 121.609375 507.179688 121.253906 505.789063 120.53125 C 504.199219 119.699219 502.667969 118.746094 501.257813 117.644531 C 499.839844 116.535156 498.558594 115.289063 497.472656 113.875 C 495.382813 111.167969 494.195313 107.679688 493.6875 104.039063 C 493.097656 99.816406 493.421875 95.355469 494.300781 91.679688 C 495.25 87.71875 497.25 84.261719 500.015625 81.605469 C 502.773438 78.960938 506.285156 77.113281 510.28125 76.347656 C 515.992188 75.257813 521.292969 75.824219 525.753906 78.070313 C 530.066406 80.238281 533.570313 83.960938 535.871094 89.246094 C 537.367188 92.695313 537.882813 96.722656 537.613281 100.660156 C 537.328125 104.886719 536.148438 109.03125 534.328125 112.265625 C 531.789063 116.785156 527.6875 119.050781 524.324219 120.90625 Z M 526.371094 104.582031 C 526.632813 103.351563 526.777344 102.0625 526.777344 100.734375 C 526.777344 97.621094 526.613281 94.285156 525.789063 91.261719 C 524.984375 88.320313 523.542969 85.636719 520.988281 83.699219 C 519.832031 82.824219 517.929688 82.304688 515.957031 82.160156 C 513.921875 82.015625 511.859375 82.277344 510.5 82.96875 C 508.898438 83.78125 507.640625 85.257813 506.6875 87.128906 C 505.566406 89.335938 504.875 92.078125 504.5625 94.953125 C 504.21875 98.074219 504.320313 101.335938 504.785156 104.242188 C 505.238281 107.09375 506.039063 109.582031 507.105469 111.226563 L 507.105469 111.230469 C 508.332031 113.09375 509.648438 114.242188 510.988281 114.933594 C 512.320313 115.617188 513.695313 115.859375 515.027344 115.90625 C 517.023438 115.976563 518.972656 115.261719 520.6875 113.980469 C 522.523438 112.613281 524.089844 110.609375 525.171875 108.21875 C 525.6875 107.082031 526.097656 105.859375 526.371094 104.582031 Z M 651.472656 94.6875 C 655.957031 97.472656 658.851563 102.628906 657.511719 110.265625 C 656.347656 116.910156 651.953125 120.835938 646.835938 122.21875 C 644.679688 122.800781 642.398438 122.925781 640.175781 122.605469 C 637.949219 122.289063 635.78125 121.527344 633.863281 120.332031 C 629.308594 117.496094 626.160156 112.257813 626.96875 104.820313 C 627.675781 98.308594 632.414063 94.261719 637.984375 92.839844 C 640.230469 92.265625 642.625 92.121094 644.941406 92.421875 C 647.273438 92.726563 649.523438 93.476563 651.472656 94.6875 Z M 646.878906 101.257813 C 646.296875 100.011719 645.449219 99.027344 644.265625 98.527344 C 643.878906 98.363281 643.492188 98.234375 643.117188 98.148438 C 641.855469 97.855469 640.765625 98.039063 639.882813 98.574219 C 638.964844 99.136719 638.226563 100.089844 637.71875 101.292969 C 637.515625 101.769531 637.347656 102.296875 637.214844 102.867188 C 636.738281 104.910156 636.621094 107.320313 636.894531 109.601563 C 637.140625 111.691406 637.710938 113.644531 638.617188 115.066406 C 639.027344 115.707031 639.519531 116.195313 640.050781 116.535156 C 640.730469 116.976563 641.488281 117.179688 642.238281 117.167969 C 643 117.15625 643.761719 116.921875 644.445313 116.484375 C 645.019531 116.117188 645.539063 115.605469 645.953125 114.960938 C 646.578125 113.988281 647.070313 112.753906 647.40625 111.386719 C 647.757813 109.945313 647.941406 108.371094 647.933594 106.820313 C 647.925781 104.8125 647.613281 102.835938 646.878906 101.257813 Z M 596.628906 100.925781 C 596.636719 101.582031 596.5625 102.265625 596.390625 102.976563 C 595.929688 104.886719 589.585938 108.320313 586.5 109.992188 C 585.890625 110.320313 585.402344 110.585938 585.226563 110.683594 C 584.980469 110.828125 584.699219 110.96875 584.363281 111.140625 C 583.046875 111.804688 580.757813 112.960938 580.785156 113.433594 C 580.796875 113.640625 580.992188 113.953125 581.285156 114.308594 C 581.714844 114.828125 582.316406 115.34375 582.9375 115.769531 C 583.851563 116.390625 584.785156 116.671875 585.738281 116.699219 C 586.730469 116.722656 587.777344 116.472656 588.863281 116.03125 C 589.292969 115.855469 589.742188 115.664063 590.195313 115.46875 C 590.976563 115.132813 591.78125 114.785156 592.761719 114.421875 C 593.425781 114.175781 594.078125 114.015625 594.636719 113.972656 C 595.3125 113.921875 595.910156 114.035156 596.351563 114.351563 L 596.386719 114.375 L 596.425781 114.40625 L 596.425781 114.410156 L 596.453125 114.433594 C 596.9375 114.832031 597.160156 115.394531 597.027344 116.132813 L 597.023438 116.132813 C 596.9375 116.601563 596.6875 117.160156 596.226563 117.808594 C 596.078125 118.015625 595.921875 118.21875 595.753906 118.421875 L 595.75 118.421875 L 595.734375 118.441406 C 595.300781 118.941406 594.738281 119.453125 594.070313 119.945313 C 593.453125 120.402344 592.746094 120.84375 591.972656 121.238281 C 590.121094 122.175781 588.160156 122.691406 586.164063 122.800781 C 584.132813 122.914063 582.074219 122.609375 580.082031 121.90625 C 576.398438 120.609375 573.507813 118.164063 571.730469 115.070313 C 569.972656 112.007813 569.316406 108.3125 570.085938 104.480469 C 570.808594 100.878906 572.523438 97.886719 575.015625 95.78125 C 577.460938 93.71875 580.640625 92.523438 584.34375 92.460938 C 585.84375 92.433594 587.332031 92.59375 588.722656 92.933594 C 590.820313 93.441406 592.71875 94.355469 594.125 95.628906 C 594.148438 95.644531 594.167969 95.664063 594.191406 95.683594 C 595.671875 97.054688 596.589844 98.816406 596.628906 100.925781 Z M 583.199219 105.460938 C 585.007813 104.371094 586.960938 103.195313 587.5625 101.28125 C 587.726563 100.761719 587.726563 100.316406 587.609375 99.949219 C 587.460938 99.480469 587.101563 99.089844 586.632813 98.800781 C 586.101563 98.46875 585.441406 98.265625 584.765625 98.203125 C 583.925781 98.128906 583.085938 98.269531 582.464844 98.65625 C 582.132813 98.859375 581.828125 99.144531 581.546875 99.507813 C 581.242188 99.898438 580.972656 100.375 580.722656 100.925781 C 580.480469 101.464844 580.28125 102.007813 580.121094 102.523438 C 580.113281 102.550781 580.105469 102.578125 580.097656 102.609375 C 579.894531 103.285156 579.757813 103.890625 579.683594 104.347656 C 579.300781 106.730469 579.207031 107.605469 579.304688 107.621094 C 579.628906 107.671875 580.667969 107.023438 582.050781 106.160156 L 582.363281 105.96875 C 582.667969 105.777344 582.929688 105.621094 583.195313 105.460938 Z M 317.8125 94.699219 C 317.8125 94.679688 317.8125 94.671875 317.8125 94.691406 C 317.8125 94.703125 317.8125 94.703125 317.8125 94.699219 Z M 614.707031 82.484375 C 614.96875 80.523438 616.203125 78.773438 618.710938 78.199219 C 621.453125 77.566406 623.449219 78.492188 624.613281 80.046875 C 625.089844 80.683594 625.417969 81.421875 625.59375 82.195313 C 625.765625 82.960938 625.789063 83.769531 625.660156 84.550781 C 625.324219 86.605469 623.953125 88.511719 621.476563 89.15625 L 621.421875 89.171875 C 618.976563 89.78125 616.984375 88.675781 615.804688 86.949219 C 615.363281 86.308594 615.039063 85.574219 614.847656 84.8125 C 614.660156 84.046875 614.605469 83.253906 614.707031 82.484375 Z M 599.472656 82.484375 C 599.734375 80.523438 600.96875 78.773438 603.476563 78.199219 C 606.222656 77.566406 608.21875 78.492188 609.378906 80.046875 C 609.855469 80.683594 610.183594 81.421875 610.359375 82.195313 C 610.53125 82.960938 610.554688 83.769531 610.429688 84.550781 C 610.09375 86.605469 608.722656 88.511719 606.242188 89.15625 L 606.1875 89.171875 C 603.742188 89.78125 601.753906 88.675781 600.570313 86.949219 C 600.128906 86.308594 599.804688 85.574219 599.613281 84.8125 C 599.425781 84.046875 599.371094 83.253906 599.472656 82.484375 Z M 399.328125 88.292969 C 397.9375 87.664063 396.613281 87.070313 395.550781 88.289063 C 395.371094 88.492188 395.210938 88.660156 395.046875 88.796875 C 395.019531 88.820313 394.996094 88.84375 394.96875 88.867188 C 394.714844 89.066406 394.464844 89.191406 394.179688 89.265625 L 394.179688 89.261719 C 393.265625 89.496094 392.304688 89.402344 391.609375 89.050781 C 391.335938 88.910156 391.089844 88.726563 390.894531 88.507813 C 390.675781 88.265625 390.515625 87.976563 390.429688 87.644531 C 390.304688 87.152344 390.355469 86.601563 390.648438 86.023438 C 390.800781 85.726563 391 85.40625 391.21875 85.085938 L 391.21875 85.089844 C 391.480469 84.714844 391.738281 84.371094 391.976563 84.082031 C 392.507813 83.441406 393.015625 82.976563 393.621094 82.625 C 394.222656 82.273438 394.882813 82.058594 395.71875 81.90625 C 396.890625 81.699219 397.953125 81.800781 399.019531 82.082031 C 400.023438 82.34375 400.996094 82.765625 402.074219 83.238281 C 404.660156 84.371094 405.433594 83.574219 406.078125 82.902344 C 406.929688 82.023438 407.671875 81.257813 409.390625 81.871094 C 409.945313 82.070313 410.339844 82.40625 410.585938 82.839844 C 410.921875 83.421875 410.953125 84.117188 410.757813 84.835938 C 410.597656 85.410156 410.28125 86.023438 409.859375 86.601563 C 408.980469 87.808594 407.585938 88.925781 406.195313 89.28125 C 403.378906 89.996094 402.234375 89.519531 400.402344 88.757813 L 400.195313 88.671875 C 399.898438 88.550781 399.613281 88.421875 399.328125 88.292969 Z M 599.675781 95.191406 C 602.113281 94.179688 606.777344 92.246094 608.613281 92.6875 C 608.957031 92.75 609.265625 92.980469 609.410156 93.328125 C 609.882813 94.460938 609.773438 101.929688 609.714844 106.027344 C 609.703125 106.867188 609.695313 107.53125 609.695313 108.261719 C 609.695313 108.597656 609.675781 109.296875 609.65625 110.054688 C 609.613281 111.90625 609.554688 114.195313 609.78125 115.292969 C 610.0625 116.628906 610.703125 116.847656 611.390625 117.085938 C 612.078125 117.320313 612.796875 117.566406 613.503906 118.28125 L 613.503906 118.285156 C 613.6875 118.472656 613.804688 118.726563 613.808594 119.011719 L 613.828125 120.179688 C 613.839844 120.765625 613.371094 121.246094 612.789063 121.253906 L 597.722656 121.542969 C 597.136719 121.550781 596.65625 121.085938 596.648438 120.5 L 596.640625 120.175781 C 596.085938 118.257813 597.015625 117.925781 598.347656 117.453125 C 599.289063 117.117188 600.6875 116.621094 600.6875 112.902344 L 600.6875 103.9375 C 600.6875 103.855469 600.695313 103.496094 600.703125 103.160156 C 600.730469 101.878906 600.746094 101.054688 599.367188 100.566406 C 598.597656 100.296875 597.710938 99.894531 597.128906 99.394531 C 596.757813 99.074219 596.488281 98.695313 596.386719 98.253906 C 596.261719 97.714844 596.378906 97.1875 596.828125 96.6875 L 596.832031 96.6875 C 597.167969 96.316406 597.71875 95.964844 598.554688 95.648438 C 598.761719 95.570313 599.164063 95.402344 599.675781 95.191406 Z M 460.679688 94.699219 C 460.679688 94.679688 460.675781 94.671875 460.679688 94.691406 C 460.679688 94.703125 460.679688 94.703125 460.679688 94.699219 Z M 615.9375 94.835938 C 618.390625 93.761719 622.230469 92.074219 623.9375 92.902344 C 624.007813 92.9375 624.078125 92.980469 624.148438 93.03125 C 624.796875 93.539063 625.074219 97.855469 625.125 102.886719 C 625.195313 109.589844 625.027344 117.796875 624.808594 119.230469 C 624.472656 121.445313 624.070313 123.0625 623.46875 124.554688 C 622.871094 126.035156 622.089844 127.355469 620.984375 128.980469 C 620.652344 129.472656 619.972656 130.410156 619.171875 131.371094 C 618.335938 132.371094 617.339844 133.429688 616.367188 134.15625 C 615.15625 135.054688 613.9375 135.457031 612.898438 134.8125 C 612.867188 134.792969 612.839844 134.777344 612.8125 134.757813 C 612.785156 134.742188 612.753906 134.714844 612.71875 134.6875 C 612.640625 134.636719 612.574219 134.574219 612.511719 134.5 C 611.386719 133.148438 612.804688 130.261719 613.855469 128.148438 L 613.886719 128.085938 C 614.15625 127.542969 614.394531 127.058594 614.527344 126.742188 C 614.78125 126.132813 615.113281 124.648438 615.390625 123.085938 C 615.671875 121.484375 615.886719 119.839844 615.886719 118.984375 L 615.886719 102.015625 C 615.886719 101.105469 614.558594 100.464844 613.53125 99.972656 C 612.605469 99.527344 611.835938 99.152344 611.558594 98.421875 C 611.164063 97.382813 611.839844 96.453125 614.515625 95.441406 C 614.847656 95.316406 615.351563 95.09375 615.9375 94.835938 Z M 558.800781 119.277344 L 558.789063 119.265625 L 558.75 119.269531 C 558.789063 119.292969 558.835938 119.332031 558.800781 119.277344 Z M 541.132813 100.265625 C 541.117188 99.722656 541.109375 100.410156 541.082031 100.769531 L 541.140625 100.453125 L 541.132813 100.273438 Z M 556.289063 95.320313 L 564.257813 92.539063 C 565.515625 92.097656 566.390625 91.960938 567.109375 92.359375 C 567.890625 92.796875 568.183594 93.636719 568.1875 95.105469 L 568.230469 116.125 C 568.230469 116.542969 568.882813 116.640625 569.445313 116.726563 C 569.980469 116.808594 570.476563 116.882813 570.925781 117.144531 C 571.636719 117.550781 572.0625 118.164063 572.246094 118.808594 C 572.375 119.265625 572.382813 119.738281 572.277344 120.171875 C 572.171875 120.628906 571.941406 121.050781 571.609375 121.378906 C 571.199219 121.78125 570.644531 122.03125 569.984375 122.027344 L 561.390625 121.964844 C 561.292969 121.964844 561.191406 121.96875 561.09375 121.96875 L 561.089844 121.96875 C 559.855469 121.992188 559.199219 122.003906 558.796875 120.277344 C 558.710938 119.902344 558.695313 119.5625 558.6875 119.269531 C 558.6875 119.234375 558.71875 119.25 558.75 119.269531 L 558.789063 119.265625 L 558.777344 119.25 C 558.519531 118.882813 558.917969 119.9375 558.089844 120.523438 C 556.914063 121.355469 555.40625 121.90625 553.84375 122.203125 C 552.144531 122.523438 550.351563 122.550781 548.839844 122.3125 C 546.3125 121.910156 544.445313 120.925781 543.195313 119.078125 C 542.003906 117.316406 541.429688 114.820313 541.433594 111.328125 L 541.140625 100.453125 L 541.082031 100.769531 C 541.070313 100.882813 541.058594 100.964844 541.046875 100.960938 C 540.066406 100.78125 538.765625 100.542969 538.152344 99.652344 C 538.089844 99.5625 538.03125 99.46875 537.984375 99.371094 C 537.972656 99.347656 537.960938 99.320313 537.949219 99.296875 C 537.675781 98.660156 537.765625 98.015625 538.054688 97.453125 C 538.292969 96.992188 538.675781 96.589844 539.085938 96.304688 C 539.257813 96.183594 539.4375 96.085938 539.605469 96.011719 L 545.632813 93.410156 C 545.984375 93.257813 546.378906 93.132813 546.78125 93.046875 C 547.160156 92.96875 547.554688 92.925781 547.9375 92.929688 L 549.109375 92.953125 C 549.785156 92.964844 550.300781 93.351563 550.644531 93.882813 C 550.953125 94.363281 551.128906 95.011719 551.125 95.523438 L 551.113281 109.882813 C 551.113281 111.78125 551.132813 113.332031 551.429688 114.386719 C 551.640625 115.132813 552.035156 115.59375 552.78125 115.699219 C 553.492188 115.796875 554.34375 115.710938 555.160156 115.480469 C 555.949219 115.257813 556.679688 114.90625 557.195313 114.460938 C 557.511719 114.191406 557.785156 113.851563 557.972656 113.429688 C 558.136719 113.054688 558.234375 112.609375 558.234375 112.078125 L 558.234375 99.832031 C 558.15625 99.761719 558.070313 100.257813 557.8125 100.242188 C 557.136719 100.207031 556.378906 100.167969 555.703125 99.851563 C 555.675781 99.84375 555.652344 99.832031 555.628906 99.820313 C 555.148438 99.578125 554.746094 99.253906 554.480469 98.875 C 554.203125 98.488281 554.058594 98.046875 554.085938 97.585938 C 554.109375 97.121094 554.300781 96.675781 554.679688 96.273438 C 555.027344 95.910156 555.554688 95.578125 556.289063 95.320313 Z M 463.921875 96.082031 C 463.902344 96.347656 463.742188 96.59375 463.484375 96.710938 Z M 543.550781 111.300781 L 543.550781 111.332031 Z M 543.25 100.210938 L 543.25 100.214844 Z M 321.054688 96.082031 C 321.035156 96.347656 320.875 96.59375 320.617188 96.710938 L 321.054688 96.082031 "/>
<path style=" stroke:none;fill-rule:evenodd;fill:rgb(100%,83.099365%,0%);fill-opacity:1;" d="M 40.574219 150.308594 C 39.542969 192.179688 173.875 191.683594 174.785156 150.308594 L 174.785156 91.460938 C 174.785156 10.011719 40.574219 9.832031 40.574219 91.460938 L 40.574219 150.308594 "/>
<path style=" stroke:none;fill-rule:evenodd;fill:rgb(100%,100%,100%);fill-opacity:1;" d="M 111.691406 19.3125 C 114.730469 19.308594 121.542969 20.671875 122.683594 23.332031 C 126.097656 31.269531 134.601563 22.378906 136.714844 31.644531 C 137.226563 33.894531 139.203125 36.046875 136.910156 36.328125 C 136.910156 36.328125 136.371094 39.027344 137.570313 40.960938 C 140.699219 42.261719 141.160156 45.703125 140.777344 48.550781 C 140.878906 51.261719 139.476563 51.734375 139.546875 54.40625 C 139.699219 55.59375 139.320313 58.574219 139.011719 60.863281 C 138.53125 64.429688 139.410156 68.667969 137.851563 72.097656 C 136.691406 74.65625 134.191406 76.226563 133.246094 77.398438 C 132.859375 79.023438 131.890625 78.742188 130.550781 79.410156 C 128.4375 81.59375 129.363281 82.003906 127.679688 84.394531 C 127.707031 85.699219 127.121094 91.636719 127.847656 92.582031 C 128.949219 94.015625 131.675781 93.429688 133.089844 94.699219 C 134.058594 95.753906 135.828125 98.058594 136.859375 98.398438 C 139.125 99.144531 140.511719 98.03125 141.449219 99.515625 C 143.390625 102.582031 146.769531 101.242188 149.390625 101.394531 C 157.421875 101.859375 168.953125 105.328125 171.722656 112.839844 C 172.519531 114.996094 171.875 118.019531 171.800781 121.585938 L 171.800781 151.089844 C 172.210938 185.96875 44.179688 189.105469 43.761719 151.089844 L 43.761719 110.148438 C 43.761719 105.105469 43.347656 102.648438 48.980469 98.585938 C 57.816406 92.394531 66.894531 93.863281 75.902344 95.09375 C 79.082031 95.535156 82.464844 96.0625 85.203125 95.050781 C 87.953125 94.035156 93.78125 87.871094 92.914063 85.144531 C 92.328125 83.300781 88.40625 85.792969 87.394531 83.035156 C 86.402344 79.304688 82.050781 77.398438 79.378906 75.007813 C 77.058594 73.390625 79.941406 70.820313 78.21875 68.992188 C 75.648438 67.832031 72.691406 64.984375 72.582031 62.097656 C 73.746094 58.578125 72.480469 55.132813 71.425781 51.964844 C 71.632813 48.058594 72.550781 44.296875 76.628906 42.851563 C 75.859375 40.472656 77.667969 35.289063 79.164063 33.835938 C 80.660156 32.378906 81.304688 33.535156 82.34375 32.378906 C 83.734375 30.828125 85.5625 27.574219 86.964844 26.015625 C 93.34375 18.917969 97.367188 24.8125 103.488281 21.898438 C 106.746094 20.347656 107.242188 19.316406 111.691406 19.3125 "/>
<path style=" stroke:none;fill-rule:nonzero;fill:rgb(14.099121%,62.399292%,42.698669%);fill-opacity:1;" d="M 121.085938 145.621094 C 123.105469 147.152344 125.796875 148.792969 128.695313 149.046875 C 132.96875 149.421875 135.964844 149.699219 139.851563 147.710938 C 141.367188 146.929688 142.761719 146.066406 143.945313 145.507813 C 144.621094 145.507813 145.113281 145.996094 145.113281 146.558594 C 141.070313 151.09375 132.046875 152.46875 124.84375 150.703125 C 121.449219 149.867188 118.460938 147.675781 116.582031 146 C 115.914063 144.84375 116.199219 145.097656 116.761719 144.039063 C 117.261719 143.441406 118.207031 143.164063 118.976563 143.441406 C 120.210938 144.433594 120.03125 144.5625 121.085938 145.621094 "/>
<path style=" stroke:none;fill-rule:nonzero;fill:rgb(14.099121%,62.399292%,42.698669%);fill-opacity:1;" d="M 121.5625 153.023438 C 121.285156 154.503906 119.839844 154.402344 118.503906 154.503906 C 117.480469 154.378906 115.824219 154.042969 113.996094 153.449219 C 110.089844 152.179688 106.640625 150.125 104.347656 146.605469 C 103.785156 145.621094 103.785156 143.898438 104.066406 143.019531 C 104.347656 142.140625 107.390625 141.519531 107.464844 144.527344 C 107.476563 145.046875 107.804688 145.878906 108.359375 146.761719 C 110.03125 149.414063 112.9375 151.035156 115.804688 152.117188 C 118.132813 152.996094 120.351563 153.378906 121.5625 153.023438 "/>
<path style=" stroke:none;fill-rule:nonzero;fill:rgb(14.099121%,62.399292%,42.698669%);fill-opacity:1;" d="M 97.152344 97.636719 C 99.550781 103.234375 107.636719 103.550781 107.742188 110.230469 C 108.125 112.554688 109.929688 114.699219 111.472656 116.25 C 111.753906 116.917969 111.195313 117.792969 110.421875 117.863281 C 108.234375 117.6875 106.40625 115.648438 104.574219 113.820313 C 102.183594 111.289063 99.4375 107.910156 95.710938 109.246094 C 92.648438 110.40625 90.925781 113.820313 90.714844 117.199219 C 90.925781 118.851563 91.101563 122.207031 92.367188 123.261719 C 93.707031 124.527344 95.328125 123.859375 96.941406 123.859375 C 104.398438 122.765625 111.648438 122.59375 119.316406 122.699219 C 120.363281 121.042969 117.804688 118.675781 117.304688 117.300781 C 117.136719 114.875 120.941406 113.109375 122.070313 111.5 C 126.109375 107.207031 127.6875 103.234375 128.285156 97.144531 C 128.742188 95.351563 130.320313 96.898438 130.960938 97.324219 C 131.914063 98.269531 132.859375 99.117188 132.683594 100.484375 C 131.636719 106.574219 128.222656 112.3125 123.542969 114.984375 C 122.484375 115.585938 122.066406 116.042969 123.1875 116.429688 C 126.03125 117.449219 127.90625 121.253906 128.402344 123.152344 C 129.382813 123.367188 130.222656 123.859375 131.285156 123.648438 C 135.117188 118.902344 135.679688 111.324219 136.671875 105.304688 C 136.945313 103.761719 136.171875 101.683594 137.335938 101.011719 C 138.113281 100.519531 140.675781 101.507813 141.167969 103.335938 C 140.78125 105.304688 144.476563 107.027344 141.238281 108.191406 C 140.746094 108.296875 140.183594 108.683594 139.972656 109.140625 C 139.898438 111.003906 142.1875 111.960938 141.128906 113.890625 C 140.570313 114.984375 137.683594 114.980469 139.128906 116.703125 C 140.003906 117.199219 140.5625 118.925781 140.671875 119.804688 C 140.5625 121.847656 135.890625 121.742188 138.5625 124.164063 C 137.996094 126.984375 136.269531 130.183594 133.386719 131.132813 C 116.074219 128.25 96.207031 127.472656 80.867188 135.390625 C 76.082031 138.34375 69.929688 142.226563 74.378906 147.855469 C 85.238281 161.613281 143.089844 163.910156 151.722656 147.09375 C 152.007813 146.210938 151.910156 145.648438 152.574219 144.875 C 153.253906 144.382813 154.40625 144.945313 155.078125 144.382813 C 158.523438 140.6875 153.070313 135.867188 156.695313 132.105469 C 159.410156 132.386719 156.90625 135.09375 157.472656 136.714844 C 159.738281 142.117188 155.941406 147.828125 152.285156 151.566406 C 150.566406 153.328125 148.796875 155.0625 151.453125 156.972656 C 154.769531 157.40625 162.863281 146.492188 163.59375 143.996094 C 164.261719 141.675781 163.523438 138.652344 164.753906 136.605469 C 165.320313 135.976563 166.265625 136.359375 166.96875 136.714844 C 167.988281 137.699219 169.1875 138.96875 169.121094 140.511719 L 169.328125 150.363281 C 169.363281 152.191406 169.613281 153.59375 168.753906 155.242188 C 166.226563 160.070313 159.492188 164.242188 153.285156 167.371094 C 140.632813 173.753906 123.402344 176.316406 108.511719 176.304688 C 95.371094 176.296875 74.851563 173.902344 59.953125 166.695313 C 54.734375 164.171875 49.824219 159.957031 47.339844 156.449219 C 45.957031 154.5 45.867188 153.480469 45.867188 151.191406 L 45.867188 142.667969 C 46.253906 141.058594 53.308594 139.585938 54.960938 132.757813 C 55.734375 131.699219 57.070313 131.3125 58.125 131.984375 C 60.625 134.410156 58.195313 138.632813 59.144531 141.832031 C 60.84375 146.476563 65.980469 149.78125 68.46875 153.582031 C 69.421875 154.953125 70.789063 156.078125 72.234375 154.847656 C 73.007813 153.757813 72.691406 152.699219 72.199219 151.644531 C 69.808594 146.898438 63.195313 143.59375 65.300781 137.191406 C 66.082031 134.902344 65.863281 132.261719 65.972656 129.871094 C 66.359375 129.660156 67.027344 129.554688 67.304688 129.9375 C 69.421875 133.074219 67.203125 136.695313 66.925781 140.003906 C 66.996094 140.703125 67.839844 141.554688 68.574219 141.554688 C 73.433594 141.652344 71.707031 135.636719 73.25 132.757813 C 74.589844 129.660156 73.433594 125.222656 71.53125 122.898438 C 69.03125 120.683594 65.019531 119.910156 61.855469 121.246094 C 56.507813 124.730469 54.234375 129.40625 47.261719 128.347656 C 46.109375 128.066406 46.253906 126.695313 45.867188 125.53125 L 45.867188 106.433594 C 45.867188 105.589844 45.332031 104.917969 46 104.496094 C 51.945313 100.730469 54.695313 97.566406 60.707031 96.722656 C 65.773438 96.019531 74.179688 97.636719 74.179688 97.636719 C 75.023438 97.917969 75.515625 98.972656 75.023438 99.746094 C 74.53125 100.238281 73.691406 100.414063 73.582031 101.191406 C 73.96875 102.5625 76.078125 103.234375 75.308594 104.988281 C 74.742188 106.820313 71.121094 106.433594 72.527344 109.070313 C 73.691406 109.84375 75.308594 111.183594 74.53125 112.726563 C 73.867188 114.488281 69.214844 114.949219 70.835938 117.484375 C 72.0625 118.257813 73.46875 119.035156 73.292969 120.683594 C 75.582031 122.128906 76.632813 123.566406 76.871094 126.589844 C 77.4375 127.683594 80.089844 126.589844 80.867188 126.589844 C 82.304688 125.746094 84.417969 126.3125 85.191406 124.660156 C 85.367188 121.953125 80.410156 122.332031 82.304688 119.0625 C 83.363281 117.792969 85.652344 119.527344 85.929688 117.554688 C 85.757813 115.339844 81.640625 113.996094 83.46875 111.113281 C 84.308594 109.914063 86.421875 110.726563 86.703125 109.070313 C 86.984375 106.359375 82.304688 106.820313 84.203125 103.828125 C 84.871094 102.667969 87.089844 103.234375 86.703125 101.402344 C 86.035156 100.519531 84.871094 100.347656 84.589844 99.253906 C 84.871094 96.828125 88.039063 97.324219 89.378906 95.878906 C 91.03125 94.894531 91.488281 92.289063 93.988281 93.347656 L 97.152344 97.636719 "/>
<path style=" stroke:none;fill-rule:nonzero;fill:rgb(14.099121%,62.399292%,42.698669%);fill-opacity:1;" d="M 156.019531 104.910156 C 165.261719 109.027344 169.320313 108.855469 169.394531 118.316406 L 169.394531 127.695313 C 169.394531 128.644531 167.914063 129.136719 166.925781 128.117188 C 163.976563 124.910156 160.03125 121.972656 155.429688 123.027344 C 153.984375 123.132813 152.539063 123.730469 151.804688 124.785156 C 147.859375 129.425781 150.792969 133.796875 150.015625 139 C 149.453125 139.597656 149.066406 138.507813 148.683594 138.4375 C 145.230469 135.519531 145.691406 134.765625 141.007813 134.871094 L 137.558594 139.480469 C 137.949219 140.746094 140.628906 141.804688 139.289063 143.742188 C 137.28125 146.375 133.664063 146.65625 130.769531 145.671875 C 129.15625 145.285156 127.613281 144.230469 126.832031 142.6875 C 126.832031 142.121094 126.832031 141.523438 127.4375 141.308594 C 128.945313 141.414063 130.003906 143.070313 131.546875 142.398438 C 138.0625 133.992188 142.535156 127.050781 148.265625 118.21875 C 148.757813 117.445313 148.480469 116.496094 148.089844 115.824219 C 147.710938 115.332031 147.035156 115.332031 146.859375 114.730469 C 146.859375 113.960938 147.527344 113.675781 148.195313 113.574219 C 150.699219 112.90625 149.640625 116.609375 150.414063 111.261719 C 149.429688 110.699219 147.847656 109.753906 148.3125 108.875 C 148.933594 108.609375 151.789063 108.832031 152.367188 108.234375 C 152.867188 107.722656 150.234375 105.015625 150.671875 104.640625 C 152.21875 104.570313 154.863281 104.03125 156.019531 104.910156 "/>
<path style=" stroke:none;fill-rule:nonzero;fill:rgb(14.099121%,62.399292%,42.698669%);fill-opacity:1;" d="M 124.03125 27.941406 C 122.199219 26.882813 121.429688 24.949219 119.421875 24.242188 C 114.738281 23.085938 108.304688 21.144531 104.289063 24.734375 C 99.652344 26.496094 94.546875 24.066406 90.363281 26.777344 C 86.527344 28.148438 87.089844 34.058594 82.796875 34.832031 C 81.425781 35.113281 80.867188 36.484375 80.195313 37.433594 C 79.527344 39.300781 79.246094 41.730469 80.410156 43.453125 C 78.859375 43.734375 77.519531 44.511719 76.359375 45.386719 C 75.023438 46.9375 74.214844 49.082031 74.816406 51.546875 C 75.585938 54.710938 76.46875 56.925781 75.695313 59.953125 C 74.847656 64.496094 80.195313 66.746094 81.285156 68.363281 C 82.164063 69.734375 81.113281 71.242188 81.988281 72.722656 C 83.078125 74.550781 85.398438 75.675781 87.023438 77.328125 C 88.570313 78.210938 88.320313 81.445313 90.714844 81.164063 C 93.105469 79.441406 91.101563 76.308594 90.714844 74.199219 C 91.699219 73.808594 92.753906 74.65625 93.808594 74.867188 C 95.328125 75.46875 97.535156 74.761719 98.664063 75.46875 C 98.488281 78.070313 95.53125 78.457031 94.09375 80.105469 C 93.988281 82.21875 94.828125 85.710938 96.871094 86.871094 C 98.773438 87.4375 99.898438 85.5 100.84375 84.339844 C 102.464844 83.285156 104.1875 85.507813 106.125 85.398438 C 107.25 85.894531 108.585938 84.90625 109.640625 85.785156 C 108.304688 89.480469 113.867188 89.582031 112.703125 93.347656 C 112.035156 95 110.589844 95.984375 108.691406 95.878906 C 106.40625 96.160156 104.292969 94.820313 102.359375 95.769531 C 101.800781 96.441406 102.289063 97.214844 102.851563 97.703125 C 107.078125 100.347656 112.703125 99.960938 116.925781 97.636719 C 120.484375 95.597656 120.9375 90.660156 120.761719 86.6875 C 122.304688 84.578125 124.316406 83.671875 124.484375 80.957031 C 124.871094 76.597656 119.703125 78.039063 117.875 75.613281 C 117.3125 74.839844 117.808594 73.675781 118.15625 73.007813 C 120.859375 71.742188 125.121094 69.855469 126.574219 66.863281 C 128.292969 66.15625 128.121094 69.523438 129.941406 69.628906 C 131.171875 69.808594 132.726563 70.863281 133.855469 69.628906 C 134.234375 67.695313 130.921875 66.640625 130.226563 65.085938 C 127.550781 61.496094 131.875 56.4375 127.933594 53.546875 C 127.160156 51.890625 129.089844 50.734375 128.710938 48.867188 C 128.214844 47.429688 126.496094 48.023438 125.363281 47.53125 C 125.152344 46.476563 126.039063 44.894531 124.589844 44.226563 C 123.640625 43.84375 122.484375 44.054688 121.636719 44.511719 C 119.699219 44.894531 118.261719 49.257813 116.144531 46.9375 C 115.96875 45.492188 116.539063 44.121094 117.523438 43.0625 C 120.472656 39.476563 125.75 40.914063 129.867188 41.238281 C 131.101563 41.023438 131.773438 39.757813 132.261719 38.914063 C 133.105469 36.171875 130.320313 34.722656 131.101563 31.808594 C 129.9375 28.816406 126.703125 28.539063 124.03125 27.941406 Z M 118.914063 57.648438 C 118.914063 57.648438 123.949219 56.800781 124.398438 59.636719 C 124.84375 62.476563 122.867188 61.113281 122.484375 60.929688 C 122.097656 60.75 119.683594 58.011719 118.914063 57.648438 Z M 113.808594 82.941406 C 111.683594 84.050781 107.53125 84.015625 104.398438 82.929688 C 107.023438 81.863281 110.945313 82.054688 113.808594 82.941406 Z M 107.847656 68.078125 C 108.304688 70.011719 110.800781 71.949219 109.078125 73.882813 C 107.074219 75.042969 104.789063 73.808594 102.675781 74.199219 C 102.285156 72.652344 104.574219 71.949219 104.859375 70.613281 C 105.914063 68.851563 105.914063 66.320313 105.808594 64.386719 C 106.125 64.101563 106.578125 63.929688 106.863281 64.207031 C 107.742188 65.265625 107.179688 66.917969 107.847656 68.078125 Z M 96.660156 61.953125 C 96.554688 63.609375 94.371094 63.328125 93.988281 64.984375 C 93.601563 65.929688 94.371094 66.53125 94.933594 66.917969 C 97.609375 65.757813 96.554688 69.132813 98.773438 68.851563 C 99.828125 68.746094 101.023438 68.363281 101.691406 67.304688 C 102.570313 66.640625 102.464844 65.542969 102.746094 64.597656 C 103.625 65.476563 103.625 67.195313 103.246094 68.363281 C 102.183594 70.996094 99.898438 72.546875 97.257813 72.722656 C 95.148438 73.039063 93.210938 72.546875 91.773438 71.382813 C 90.429688 69.90625 89.480469 67.972656 89.972656 65.757813 C 90.253906 64.207031 91.382813 62.765625 92.929688 62.0625 C 94.09375 61.675781 95.601563 60.796875 96.660156 61.953125 Z M 115.304688 63.609375 C 115.019531 64.316406 113.96875 64.769531 114.351563 65.929688 C 115.691406 67.410156 117.414063 67.691406 119.316406 67.691406 C 120.648438 67.589844 121.710938 66.53125 122.484375 65.652344 C 123.046875 66.421875 121.988281 67.128906 121.710938 67.691406 C 119.910156 69.347656 117.304688 70.121094 114.738281 69.734375 C 113.089844 69.445313 111.648438 68.746094 110.800781 67.195313 C 110.023438 66.25 110.238281 64.984375 110.304688 63.929688 C 111.96875 64.207031 113.6875 63.539063 115.304688 63.609375 Z M 113.863281 49.257813 C 115.480469 51.683594 119.03125 48.867188 120.472656 51.226563 L 120.761719 54.601563 C 117.699219 53.726563 113.585938 54.117188 110.972656 56.046875 C 109.183594 57.523438 108.304688 59.355469 107.355469 61.113281 L 104.289063 61.675781 C 101.339844 59.246094 97.535156 58.300781 93.601563 58.96875 C 93.105469 58.792969 92.820313 58.191406 93.105469 57.808594 C 94.546875 56.539063 96.871094 57.3125 98.59375 56.644531 C 104.289063 55.378906 107.179688 49.257813 112.703125 47.640625 L 113.863281 49.257813 "/>
<path style=" stroke:none;fill-rule:evenodd;fill:rgb(100%,100%,100%);fill-opacity:1;" d="M 108.589844 78.710938 C 108.589844 78.992188 108.515625 79.308594 108.199219 79.480469 C 105.351563 79.378906 103.132813 81.808594 100.359375 81.351563 C 99.933594 81.035156 100.003906 80.15625 100.25 79.691406 C 101.90625 77.550781 104.753906 76.882813 107.464844 77.652344 C 107.816406 77.933594 108.308594 78.148438 108.589844 78.710938 "/>
</g>
</svg>
