<?xml version="1.0" encoding="UTF-8" standalone="no"?>
<svg
   xmlns:dc="http://purl.org/dc/elements/1.1/"
   xmlns:cc="http://creativecommons.org/ns#"
   xmlns:rdf="http://www.w3.org/1999/02/22-rdf-syntax-ns#"
   xmlns:svg="http://www.w3.org/2000/svg"
   xmlns="http://www.w3.org/2000/svg"
   xmlns:sodipodi="http://sodipodi.sourceforge.net/DTD/sodipodi-0.dtd"
   xmlns:inkscape="http://www.inkscape.org/namespaces/inkscape"
   viewBox="0 0 700 700"
   version="1.1"
   id="svg12"
   sodipodi:docname="lacta-logo.svg"
   width="700"
   height="700"
   style="fill:currentColor"
   inkscape:version="0.92.4 (5da689c313, 2019-01-14)"
   inkscape:export-filename="C:\Users\suitedoalex\sites\lacta-logo-0.png"
   inkscape:export-xdpi="561.73712"
   inkscape:export-ydpi="561.73712">
  <metadata
     id="metadata18">
    <rdf:RDF>
      <cc:Work
         rdf:about="">
        <dc:format>image/svg+xml</dc:format>
        <dc:type
           rdf:resource="http://purl.org/dc/dcmitype/StillImage" />
        <dc:title></dc:title>
      </cc:Work>
    </rdf:RDF>
  </metadata>
  <defs
     id="defs16" />
  <sodipodi:namedview
     pagecolor="#ffffff"
     bordercolor="#666666"
     borderopacity="1"
     objecttolerance="10"
     gridtolerance="10"
     guidetolerance="10"
     inkscape:pageopacity="0"
     inkscape:pageshadow="2"
     inkscape:window-width="1600"
     inkscape:window-height="837"
     id="namedview14"
     showgrid="false"
     inkscape:zoom="0.7337963"
     inkscape:cx="255.12164"
     inkscape:cy="279.26503"
     inkscape:window-x="-8"
     inkscape:window-y="-8"
     inkscape:window-maximized="1"
     inkscape:current-layer="svg12" />
  <path
     d="m 492.38123,371.58229 c 1.45603,-5.9167 3.00896,-11.79438 4.66502,-17.64022 11.75052,-5.67042 33.40125,-8.14344 50.38648,-7.0426 2.433,8.14969 4.66502,16.38373 6.70328,24.68282 h 31.43382 C 572.91997,326.73466 555.99305,285.24061 538.50995,256.02636 h -30.50217 c -17.48359,29.21424 -34.4105,70.71505 -47.06038,115.55593 z m 30.87764,-88.36141 c 5.77161,12.19581 11.00634,24.89659 15.71039,37.95324 -15.12191,0.21351 -27.26042,2.70581 -34.42351,8.5965 5.44823,-16.08637 11.68593,-31.69338 18.71312,-46.54974 z"
     id="path2"
     style="fill:#0033a0;fill-opacity:1;stroke-width:4.81973505"
     inkscape:connector-curvature="0"
     inkscape:export-filename="C:\Users\suitedoalex\sites\lacta-logo-4.png"
     inkscape:export-xdpi="78.110237"
     inkscape:export-ydpi="78.110237" />
  <path
     d="m 588.73591,385.35083 c -31.8112,11.91101 -69.19788,22.88988 -122.20436,22.88988 -93.18909,0 -158.47674,-22.88988 -244.78132,-22.88988 -36.07956,0 -66.95045,5.72247 -86.86044,12.16984 V 256.02636 H 104.19353 V 432.8069 c 33.29742,-10.7909 68.4518,-21.02512 117.5567,-21.02512 84.25956,0 146.01483,34.61292 244.78131,34.61292 53.56942,0 94.86443,-9.67754 129.27494,-26.23671 -1.86525,-11.17263 -4.28475,-22.70817 -7.07057,-34.80716 z"
     id="path4"
     style="fill:#0033a0;fill-opacity:1;stroke-width:4.81973505"
     inkscape:connector-curvature="0"
     inkscape:export-filename="C:\Users\suitedoalex\sites\lacta-logo-4.png"
     inkscape:export-xdpi="78.110237"
     inkscape:export-ydpi="78.110237" />
  <path
     d="m 333.91075,374.00324 c 15.25109,0 31.6218,-3.53431 44.08419,-11.91102 v -28.10097 c -14.50692,9.67802 -27.90096,13.95651 -41.85169,13.95651 -24.7368,0 -31.24634,-16.1895 -31.24634,-35.91378 0,-21.40111 8.18536,-32.37989 24.3681,-32.37989 11.16204,0 17.48359,6.69991 18.22776,18.97987 h 29.75801 c -0.74417,-30.13997 -18.97818,-45.02866 -47.99203,-45.02866 -40.17586,0 -55.42695,26.42424 -55.42695,58.42868 0,36.65842 15.43907,61.96926 60.07895,61.96926 z"
     id="path6"
     style="fill:#0033a0;fill-opacity:1;stroke-width:4.81973505"
     inkscape:connector-curvature="0"
     inkscape:export-filename="C:\Users\suitedoalex\sites\lacta-logo-4.png"
     inkscape:export-xdpi="78.110237"
     inkscape:export-ydpi="78.110237" />
  <path
     d="m 186.05237,353.94207 c 11.75052,-5.67042 33.40126,-8.14344 50.386,-7.0426 2.433,8.14969 4.66551,16.38373 6.70377,24.68282 h 31.43383 C 261.92608,326.73466 244.99918,285.24061 227.5156,256.02636 h -30.50218 c -17.48311,29.21425 -34.41002,70.71505 -47.06018,115.55593 h 31.43413 c 1.44928,-5.91044 3.00847,-11.79438 4.665,-17.64022 z m 26.21215,-70.72119 c 5.77162,12.19581 11.00633,24.89659 15.71041,37.95324 -15.12146,0.21351 -27.26043,2.70581 -34.42304,8.5965 5.44148,-16.08637 11.67919,-31.69338 18.71263,-46.54974 z"
     id="path8"
     style="fill:#0033a0;fill-opacity:1;stroke-width:4.81973505"
     inkscape:connector-curvature="0"
     inkscape:export-filename="C:\Users\suitedoalex\sites\lacta-logo-4.png"
     inkscape:export-xdpi="78.110237"
     inkscape:export-ydpi="78.110237" />
  <path
     d="m 413.51832,371.58229 h 30.68966 V 282.0751 h 30.68965 v -26.04874 h -92.06946 v 26.04874 h 30.69014 z"
     id="path10"
     style="fill:#0033a0;fill-opacity:1;stroke-width:4.81973505"
     inkscape:connector-curvature="0"
     inkscape:export-filename="C:\Users\suitedoalex\sites\lacta-logo-4.png"
     inkscape:export-xdpi="78.110237"
     inkscape:export-ydpi="78.110237" />
</svg>
